<svg width="62" height="62" fill="none" xmlns="http://www.w3.org/2000/svg"><path fill-rule="evenodd" clip-rule="evenodd" d="M17.316 10.106A9.341 9.341 0 0126.657.765H36a9.341 9.341 0 019.341 9.341v.638c2.904.266 5.784.614 8.638 1.04 4.528.678 7.71 4.617 7.71 9.082v9.445c0 3.772-2.285 7.325-6.03 8.57a76.992 76.992 0 01-24.33 3.92 76.99 76.99 0 01-24.33-3.92c-3.745-1.245-6.03-4.799-6.03-8.57v-9.445c0-4.465 3.183-8.404 7.71-9.081 2.854-.427 5.734-.775 8.638-1.04v-.639zm23.354 0v.283a154.051 154.051 0 00-18.683 0v-.283a4.67 4.67 0 014.67-4.67H36a4.67 4.67 0 014.67 4.67zm-9.342 25.689a2.335 2.335 0 100-4.67 2.335 2.335 0 000 4.67z" fill="#FFB800"/><path d="M3.304 51.053v-8.707a13.38 13.38 0 002.22.967 81.66 81.66 0 0025.804 4.159 81.661 81.661 0 0025.804-4.159c.785-.26 1.526-.586 2.22-.967v8.707c0 4.52-3.26 8.492-7.856 9.103a153.19 153.19 0 01-20.168 1.328c-6.836 0-13.568-.452-20.168-1.328-4.595-.61-7.856-4.582-7.856-9.103z" fill="#FFB800"/></svg>