<svg width="70" height="64" fill="none" xmlns="http://www.w3.org/2000/svg"><path d="M32.302 6.168A34.722 34.722 0 0013.522.685c-4.07 0-7.984.698-11.624 1.985A2.683 2.683 0 00.11 5.2v50.97a2.683 2.683 0 003.577 2.53 29.456 29.456 0 019.837-1.679c7.136 0 13.675 2.53 18.779 6.745V6.168zm5.365 57.598a29.378 29.378 0 0118.779-6.745c3.454 0 6.764.592 9.837 1.679a2.683 2.683 0 003.576-2.53V5.2a2.682 2.682 0 00-1.788-2.53A34.823 34.823 0 0056.446.685a34.721 34.721 0 00-18.779 5.483v57.598z" fill="#FFB800"/></svg>