<svg width="62" height="62" fill="none" xmlns="http://www.w3.org/2000/svg"><path d="M33.663 33.359a2.335 2.335 0 11-4.67 0 2.335 2.335 0 014.67 0zM17.316 42.7a2.335 2.335 0 100-4.67 2.335 2.335 0 000 4.67zm2.335 4.671a2.335 2.335 0 11-4.67 0 2.335 2.335 0 014.67 0zm4.671-4.671a2.335 2.335 0 100-4.67 2.335 2.335 0 000 4.67zm2.335 4.671a2.335 2.335 0 11-4.67 0 2.335 2.335 0 014.67 0zm4.671-4.671a2.335 2.335 0 100-4.67 2.335 2.335 0 000 4.67zm2.335 4.671a2.335 2.335 0 11-4.67 0 2.335 2.335 0 014.67 0zm4.671-4.671a2.335 2.335 0 100-4.67 2.335 2.335 0 000 4.67zm2.336 4.671a2.335 2.335 0 11-4.671 0 2.335 2.335 0 014.67 0zm4.67-4.671a2.335 2.335 0 100-4.67 2.335 2.335 0 000 4.67zm-4.67-9.341a2.335 2.335 0 11-4.671 0 2.335 2.335 0 014.67 0zm4.67 2.335a2.335 2.335 0 100-4.67 2.335 2.335 0 000 4.67z" fill="#FFB800"/><path fill-rule="evenodd" clip-rule="evenodd" d="M14.98.664A2.335 2.335 0 0117.317 3v4.67H45.34V3a2.335 2.335 0 114.671 0v4.67h2.335a9.341 9.341 0 019.342 9.342v35.03a9.341 9.341 0 01-9.342 9.341H10.31a9.341 9.341 0 01-9.341-9.341v-35.03a9.341 9.341 0 019.34-9.342h2.336V3A2.335 2.335 0 0114.981.663zm42.037 28.024a4.67 4.67 0 00-4.67-4.67H10.31a4.67 4.67 0 00-4.67 4.67v23.354a4.67 4.67 0 004.67 4.67h42.036a4.67 4.67 0 004.671-4.67V28.688z" fill="#FFB800"/></svg>