<svg width="32" height="33" fill="none" xmlns="http://www.w3.org/2000/svg"><path d="M5.078 3.896a1.135 1.135 0 00-.569.063c-.181.07-.343.184-.47.334a1.22 1.22 0 00-.24 1.11l2.19 7.824c.14.497.433.934.836 1.245.403.311.894.48 1.399.48h9.474c.308 0 .603.125.821.348.218.224.34.527.34.843 0 .316-.122.618-.34.842a1.148 1.148 0 01-.821.349H8.224c-.505 0-.996.168-1.399.479a2.384 2.384 0 00-.836 1.245L3.8 26.881a1.22 1.22 0 00.24 1.11 1.136 1.136 0 001.04.398c8.825-1.285 17.075-5.241 23.693-11.362a1.19 1.19 0 00.384-.884 1.216 1.216 0 00-.384-.885C22.154 9.138 13.904 5.181 5.078 3.896z" fill="#1A2024"/></svg>