<svg width="67" height="56" fill="none" xmlns="http://www.w3.org/2000/svg"><path d="M32.79.434a2.203 2.203 0 011.764 0 178.167 178.167 0 0130.928 17.372 2.203 2.203 0 01-.679 3.928A146.676 146.676 0 0035.72 33.225l-.01.005c-.333.175-.666.35-.998.528a2.203 2.203 0 01-2.076 0 146.57 146.57 0 00-12.181-5.806v-.657c0-.386.198-.728.504-.914a160.419 160.419 0 0113.668-7.4 2.203 2.203 0 00-1.908-3.972 164.859 164.859 0 00-14.043 7.604 5.456 5.456 0 00-2.521 3.606A146.47 146.47 0 002.54 21.733a2.203 2.203 0 01-.678-3.927A178.158 178.158 0 0132.79.434z" fill="#FFB800"/><path d="M36.788 37.644a142.314 142.314 0 0122.514-9.642c.395 4.155.646 8.353.75 12.586a2.203 2.203 0 01-1.353 2.087 140.64 140.64 0 00-23.806 12.753 2.203 2.203 0 01-2.443 0A140.633 140.633 0 008.644 42.675a2.203 2.203 0 01-1.353-2.087c.104-4.234.356-8.431.75-12.587 2.705.891 5.375 1.862 8.007 2.908v3.731a4.404 4.404 0 00-.411 7.364 15.333 15.333 0 01-1.167 3.26 139.19 139.19 0 013.954 1.943 19.763 19.763 0 001.619-4.724 4.407 4.407 0 00.41-7.843v-1.894a142.555 142.555 0 0110.106 4.898 6.609 6.609 0 006.229 0z" fill="#FFB800"/><path d="M11.53 49.361a15.406 15.406 0 002.94-4.097 139.19 139.19 0 013.954 1.943 19.801 19.801 0 01-3.778 5.27 2.203 2.203 0 01-3.115-3.116z" fill="#FFB800"/></svg>