<svg width="65" height="60" fill="none" xmlns="http://www.w3.org/2000/svg"><path d="M11.14 1.885A149.274 149.274 0 0130.366.646c6.514 0 12.93.422 19.224 1.239 5.831.757 9.985 5.646 10.33 11.306-.988-.33-2.035-.55-3.13-.64-4.213-.35-8.473-.528-12.773-.528-4.3 0-8.56.178-12.772.528-7.155.594-12.256 6.646-12.256 13.452v13.001c0 5.13 2.896 9.827 7.38 12.087l-8.047 8.047a2.275 2.275 0 01-3.884-1.609V45.305a148.176 148.176 0 01-3.297-.39C5.048 44.122.786 38.82.786 32.842V13.957c0-5.979 4.262-11.281 10.354-12.072z" fill="#FFB800"/><path d="M44.017 16.574c-4.174 0-8.308.173-12.396.512-4.67.388-8.082 4.35-8.082 8.917v13.001c0 4.574 3.422 8.54 8.098 8.92 3.773.309 7.587.477 11.435.501l8.438 8.438a2.275 2.275 0 003.884-1.609v-7.25c.334-.025.669-.052 1.003-.079 4.676-.381 8.098-4.346 8.098-8.92V26.003c0-4.567-3.412-8.53-8.082-8.917-4.088-.34-8.222-.512-12.396-.512z" fill="#FFB800"/></svg>