<svg width="148" height="146" fill="none" xmlns="http://www.w3.org/2000/svg"><path fill-rule="evenodd" clip-rule="evenodd" d="M58.164 49.246c0-5.83 4.727-10.558 10.557-10.558H79.28c5.83 0 10.557 4.727 10.557 10.558v.721c3.281.3 6.536.693 9.762 1.176 5.117.766 8.713 5.217 8.713 10.264V72.08c0 4.262-2.581 8.278-6.814 9.685A87.009 87.009 0 0174 86.196a87.013 87.013 0 01-27.497-4.43c-4.233-1.407-6.814-5.423-6.814-9.685V61.407c0-5.047 3.596-9.498 8.713-10.264 3.226-.483 6.48-.876 9.762-1.176v-.721zm26.393 0v.32a174.212 174.212 0 00-21.114 0v-.32a5.279 5.279 0 015.278-5.279H79.28a5.279 5.279 0 015.278 5.279zM74 78.278A2.64 2.64 0 1074 73a2.64 2.64 0 000 5.278z" fill="#fff"/><path d="M42.328 95.522v-9.84c.785.43 1.622.798 2.51 1.093A92.29 92.29 0 0074 91.475a92.294 92.294 0 0029.163-4.7 15.154 15.154 0 002.509-1.093v9.84c0 5.109-3.685 9.598-8.88 10.288A173.155 173.155 0 0174 107.311a173.16 173.16 0 01-22.793-1.501c-5.194-.69-8.879-5.179-8.879-10.288z" fill="#fff"/></svg>