<svg width="70" height="70" fill="none" xmlns="http://www.w3.org/2000/svg"><path fill-rule="evenodd" clip-rule="evenodd" d="M19.164 11.246c0-5.83 4.727-10.558 10.557-10.558H40.28c5.83 0 10.557 4.727 10.557 10.558v.721c3.281.3 6.536.693 9.762 1.176 5.117.766 8.713 5.217 8.713 10.264V34.08c0 4.262-2.582 8.278-6.814 9.685A87.012 87.012 0 0135 48.196a87.014 87.014 0 01-27.497-4.43C3.27 42.36.689 38.343.689 34.081V23.407c0-5.047 3.596-9.498 8.713-10.264 3.226-.483 6.48-.876 9.762-1.176v-.721zm26.393 0v.32a174.212 174.212 0 00-21.114 0v-.32a5.279 5.279 0 015.278-5.279H40.28a5.279 5.279 0 015.278 5.279zM35 40.278A2.64 2.64 0 1035 35a2.64 2.64 0 000 5.278z" fill="#fff"/><path d="M3.328 57.522v-9.84c.785.43 1.622.798 2.51 1.093A92.29 92.29 0 0035 53.475a92.291 92.291 0 0029.163-4.7 15.158 15.158 0 002.509-1.093v9.84c0 5.11-3.685 9.598-8.88 10.288A173.12 173.12 0 0135 69.31a173.12 173.12 0 01-22.793-1.501c-5.194-.69-8.879-5.179-8.879-10.288z" fill="#fff"/></svg>