<svg width="53" height="80" fill="none" xmlns="http://www.w3.org/2000/svg"><g clip-path="url(#clip0_505_62)"><path d="M13.25 80c7.314 0 13.25-5.973 13.25-13.333V53.333H13.25C5.936 53.334 0 59.308 0 66.668 0 74.027 5.936 80 13.25 80z" fill="#0ACF83"/><path d="M0 40c0-7.36 5.936-13.334 13.25-13.334H26.5v26.667H13.25C5.936 53.333 0 47.36 0 40z" fill="#A259FF"/><path d="M0 13.333C0 5.973 5.936 0 13.25 0H26.5v26.667H13.25C5.936 26.667 0 20.693 0 13.333z" fill="#F24E1E"/><path d="M26.5 0h13.25C47.064 0 53 5.973 53 13.333s-5.936 13.334-13.25 13.334H26.5V0z" fill="#FF7262"/><path d="M53 40c0 7.36-5.936 13.333-13.25 13.333S26.5 47.36 26.5 40s5.936-13.334 13.25-13.334S53 32.64 53 40z" fill="#1ABCFE"/></g><defs><clipPath id="clip0_505_62"><path fill="#fff" d="M0 0h53v80H0z"/></clipPath></defs></svg>