<svg version="1.0" xmlns="http://www.w3.org/2000/svg" width="682.667" height="682.667" viewBox="0 0 512 512"><path d="M482.8 4.9c-5.1 2.7-60.6 31.6-123.3 64.4-62.7 32.7-167.5 87.5-233 121.6-65.4 34.2-120 63.2-121.3 64.4C2.2 258 0 263 0 267c0 4 3.4 10.5 6.4 12.5 3.5 2.3 136.7 47.7 138.2 47.1.7-.3 19.9-16.4 42.6-35.8 22.7-19.5 85-72.7 138.3-118.2 53.4-45.6 98.1-83.8 99.5-85l2.4-2.1-2.4 3c-1.4 1.7-50.4 60.8-109 131.4-58.6 70.5-106.6 128.6-106.8 128.9-.1.6 214.6 74.5 225.5 77.7 5.1 1.4 13.9-3 16.7-8.3 2-3.9 61-401.5 60.2-405.7-.8-4.3-5-9.4-9.3-11.1-5.7-2.4-9.6-1.7-19.5 3.5zM187 427.5c0 56.1-.1 54.9 5.6 59.4 6.6 5.2 15.5 4.7 21.1-1.1 4-4.3 59.6-79.9 59-80.4-.4-.4-84.5-29.4-85.3-29.4-.2 0-.4 23.2-.4 51.5z" fill="#ffb800"/></svg>