<svg width="70" height="70" fill="none" xmlns="http://www.w3.org/2000/svg"><path fill-rule="evenodd" clip-rule="evenodd" d="M10.494.27C4.71.27.02 4.959.02 10.744V25.82c0 2.778 1.104 5.442 3.068 7.406l33.451 33.452c3.21 3.21 8.342 4.14 12.386 1.493a65.804 65.804 0 0018.996-18.996c2.648-4.045 1.717-9.176-1.493-12.386L32.977 3.337A10.474 10.474 0 0025.57.27H10.494zm3.928 18.33a3.928 3.928 0 100-7.856 3.928 3.928 0 000 7.855z" fill="#FF3A3A"/><path d="M32.013 26.286c.917-.917 1.884-1.364 2.902-1.341 1.03.034 1.963.47 2.8 1.307.837.837 1.267 1.765 1.29 2.783.023 1.018-.424 1.985-1.34 2.902-.917.916-1.884 1.363-2.903 1.34-1.018-.022-1.946-.452-2.783-1.29-.837-.836-1.273-1.77-1.306-2.8-.023-1.018.424-1.985 1.34-2.901zm14.205 8.841l-18.481 5.414-2.8-2.8 18.48-5.414 2.8 2.8zM36 27.932c-.543-.543-1.205-.425-1.985.356-.77.77-.883 1.426-.34 1.969.26.26.56.367.9.322.34-.045.701-.26 1.086-.645.78-.78.894-1.448.34-2.002zm-2.494 13.016c.916-.916 1.883-1.363 2.902-1.34 1.018.022 1.946.452 2.783 1.29.837.836 1.267 1.764 1.29 2.782.022 1.019-.425 1.986-1.341 2.902-.917.917-1.884 1.364-2.902 1.341-1.018-.023-1.946-.453-2.783-1.29-.838-.837-1.267-1.765-1.29-2.783-.023-1.018.424-1.986 1.34-2.902zm3.97 1.63c-.26-.26-.56-.368-.899-.323-.328.056-.69.283-1.086.679-.77.769-.882 1.425-.34 1.968.261.26.56.368.9.323.34-.046.702-.26 1.086-.645.385-.385.6-.747.645-1.086a1.007 1.007 0 00-.305-.917z" fill="#fff"/></svg>