<svg width="91" height="90" fill="none" xmlns="http://www.w3.org/2000/svg"><path d="M62.33 2.689H28.647v18.469h33.685V2.689zM45.414 37.685c5.24 0 9.428 4.132 9.428 9.3 0 5.169-4.188 9.3-9.428 9.3-5.239 0-9.427-4.131-9.427-9.3.148-5.168 4.188-9.3 9.427-9.3z" fill="#FFB800"/><path d="M45.414 87.617h-5.683L13.683 37.7l14.978-16.688h33.684L77.323 37.7 51.127 87.617h-5.713zm0-31.463c5.24 0 9.428-4.131 9.428-9.3 0-5.168-4.188-9.3-9.428-9.3-5.239 0-9.427 4.132-9.427 9.3.148 5.169 4.188 9.3 9.427 9.3z" fill="#FFB800"/><path d="M50.95 89.384c-.296 0-.592 0-.903-.146-.903-.438-1.347-1.621-.755-2.512l25.604-48.734L60.821 22.34c-.755-.744-.592-1.912.148-2.657.755-.744 1.939-.598 2.694.146L78.64 36.517c.444.584.591 1.329.295 2.073L52.74 88.362c-.444.744-1.05 1.036-1.79 1.036v-.014zm-11.086 0c-.755 0-1.346-.292-1.642-1.037L11.877 38.576c-.296-.745-.296-1.475.296-2.073l14.978-16.688c.755-.745 1.79-.89 2.694-.146.755.745.902 1.767.148 2.657L15.918 37.977l25.604 48.735c.444.89.148 2.073-.755 2.511-.444.146-.755.146-.903.146v.015zm5.55 0c-1.05 0-1.938-.89-1.938-1.927V56.14c0-1.037.902-1.928 1.938-1.928s1.954.891 1.954 1.928v31.463c0 .89-.903 1.766-1.954 1.766v.015z" fill="#fff"/><path d="M45.414 58.067c-6.142 0-11.233-5.023-11.233-11.082 0-6.059 5.091-11.081 11.233-11.081s11.234 5.022 11.234 11.081c0 6.06-5.092 11.082-11.234 11.082zm0-18.455c-4.188 0-7.488 3.256-7.488 7.388s3.3 7.387 7.488 7.387c4.189 0 7.49-3.255 7.49-7.387s-3.301-7.388-7.49-7.388zM62.33 22.925H28.647c-1.051 0-1.939-.891-1.939-1.928V2.69c0-1.037.903-1.913 1.939-1.913H62.33c1.05 0 1.938.891 1.938 1.913v18.469c-.148.89-1.05 1.767-1.938 1.767zM30.438 19.23h29.94V4.456h-29.94V19.23zm58.089 70.154H2.435c-1.05 0-1.939-.89-1.939-1.927s.903-1.928 1.94-1.928h86.09c1.052 0 1.954.89 1.954 1.928-.148 1.036-1.05 1.927-1.953 1.927z" fill="#fff"/></svg>