<svg width="72" height="62" fill="none" xmlns="http://www.w3.org/2000/svg"><path d="M35.984 21.004c-6.986 0-12.65 5.664-12.65 12.65 0 6.987 5.664 12.65 12.65 12.65 6.987 0 12.65-5.663 12.65-12.65 0-6.986-5.663-12.65-12.65-12.65z" fill="#FFB800"/><path fill-rule="evenodd" clip-rule="evenodd" d="M27.026 1.005a167.06 167.06 0 0117.917 0c3.264.175 6.172 1.973 7.868 4.69l2.77 4.44c.807 1.293 2.176 2.17 3.745 2.394 1.3.184 2.595.384 3.885.6 4.83.804 8.193 5.035 8.193 9.812v28.423c0 5.59-4.53 10.12-10.12 10.12h-50.6c-5.588 0-10.12-4.53-10.12-10.12V22.941c0-4.777 3.364-9.008 8.194-9.813 1.29-.215 2.585-.415 3.885-.6 1.569-.222 2.938-1.1 3.745-2.393l2.77-4.44c1.696-2.717 4.604-4.515 7.868-4.69zm-8.751 32.65c0-9.782 7.929-17.71 17.71-17.71 9.78 0 17.71 7.928 17.71 17.71 0 9.78-7.93 17.709-17.71 17.709-9.781 0-17.71-7.929-17.71-17.71zm40.48-5.06a2.53 2.53 0 100-5.06 2.53 2.53 0 000 5.06z" fill="#FFB800"/></svg>