<svg width="67" height="57" fill="none" xmlns="http://www.w3.org/2000/svg"><path d="M32.446.738a2.203 2.203 0 011.764 0 178.157 178.157 0 0130.928 17.373 2.203 2.203 0 01-.678 3.927A146.693 146.693 0 0035.376 33.53l-.01.006c-.334.174-.666.35-.998.528a2.203 2.203 0 01-2.077 0 146.581 146.581 0 00-12.181-5.807V27.6c0-.385.198-.728.504-.913a160.447 160.447 0 0113.668-7.401 2.203 2.203 0 10-1.908-3.972 164.884 164.884 0 00-14.043 7.604 5.456 5.456 0 00-2.521 3.607 146.387 146.387 0 00-13.613-4.486 2.203 2.203 0 01-.679-3.927A178.154 178.154 0 0132.446.738z" fill="#FFB800"/><path d="M36.444 37.95a142.314 142.314 0 0122.514-9.644c.395 4.156.647 8.353.75 12.586a2.203 2.203 0 01-1.353 2.088A140.64 140.64 0 0034.55 55.733a2.203 2.203 0 01-2.444 0A140.638 140.638 0 008.3 42.98a2.203 2.203 0 01-1.353-2.087c.104-4.234.356-8.431.75-12.588a142.1 142.1 0 018.007 2.908v3.732a4.404 4.404 0 00-.41 7.364 15.34 15.34 0 01-1.168 3.26 140.29 140.29 0 013.954 1.943 19.758 19.758 0 001.619-4.724 4.407 4.407 0 00.41-7.843V33.05a142.579 142.579 0 0110.106 4.898 6.609 6.609 0 006.229 0z" fill="#FFB800"/><path d="M11.187 49.666a15.407 15.407 0 002.939-4.097 140.29 140.29 0 013.954 1.943 19.803 19.803 0 01-3.778 5.27 2.203 2.203 0 01-3.115-3.116z" fill="#FFB800"/></svg>